<svg xmlns="http://www.w3.org/2000/svg" viewBox="0 0 420 110" fill="none">
  <!-- Teal chevron 1 (top) -->
  <polygon points="8,4 38,30 68,4 75,4 38,38 1,4" fill="#3DD4CE"/>
  <!-- Teal chevron 2 -->
  <polygon points="8,20 38,46 68,20 75,20 38,54 1,20" fill="#3DD4CE"/>

  <!-- Dark M base -->
  <!-- Left leg -->
  <polygon points="1,57 14,57 14,100 1,100" fill="#1e1e1e"/>
  <!-- Right leg -->
  <polygon points="62,57 75,57 75,100 62,100" fill="#1e1e1e"/>
  <!-- Left diagonal -->
  <polygon points="1,57 16,57 38,76 23,76" fill="#1e1e1e"/>
  <!-- Right diagonal -->
  <polygon points="75,57 60,57 38,76 53,76" fill="#1e1e1e"/>

  <!-- Hebrew tagline -->
  <text x="418" y="28" font-family="Arial, Helvetica, sans-serif" font-size="13" fill="#666" text-anchor="end" direction="rtl">בנייה מודולארית</text>

  <!-- MODUSYSTEMS LTD. -->
  <text x="92" y="78" font-family="'Arial Black', Arial, sans-serif" font-size="27" font-weight="900" fill="#1e1e1e" letter-spacing="0.5">MODUSYSTEMS</text>
  <text x="355" y="78" font-family="Arial, sans-serif" font-size="15" font-weight="normal" fill="#1e1e1e">LTD.</text>

  <!-- Modular Construction -->
  <text x="92" y="100" font-family="Arial, Helvetica, sans-serif" font-size="14" fill="#555" letter-spacing="0.3">Modular Construction</text>
</svg>
